HIERARCHY
ROOT Hips
{
	OFFSET 0.00000 0.00000 0.00000
	CHANNELS 6 Xposition Yposition Zposition Zrotation Yrotation Xrotation 
	JOINT LHipJoint
	{
		OFFSET 0 0 0
		CHANNELS 3 Zrotation Yrotation Xrotation
		JOINT LeftUpLeg
		{
			OFFSET 1.52977 -1.71332 0.88991
			CHANNELS 3 Zrotation Yrotation Xrotation
			JOINT LeftLeg
			{
				OFFSET 2.23949 -6.15296 0.00000
				CHANNELS 3 Zrotation Yrotation Xrotation
				JOINT LeftFoot
				{
					OFFSET 2.68396 -7.37412 0.00000
					CHANNELS 3 Zrotation Yrotation Xrotation
					JOINT LeftToeBase
					{
						OFFSET 0.20538 -0.56428 2.52710
						CHANNELS 3 Zrotation Yrotation Xrotation
						End Site
						{
							OFFSET 0.00000 -0.00000 1.29919
						}
					}
				}
			}
		}
	}
	JOINT RHipJoint
	{
		OFFSET 0 0 0
		CHANNELS 3 Zrotation Yrotation Xrotation
		JOINT RightUpLeg
		{
			OFFSET -1.45689 -1.71333 0.88991
			CHANNELS 3 Zrotation Yrotation Xrotation
			JOINT RightLeg
			{
				OFFSET -2.36700 -6.50329 0.00000
				CHANNELS 3 Zrotation Yrotation Xrotation
				JOINT RightFoot
				{
					OFFSET -2.69814 -7.41308 0.00000
					CHANNELS 3 Zrotation Yrotation Xrotation
					JOINT RightToeBase
					{
						OFFSET -0.18734 -0.51471 2.37479
						CHANNELS 3 Zrotation Yrotation Xrotation
						End Site
						{
							OFFSET -0.00000 -0.00000 1.22113
						}
					}
				}
			}
		}
	}
	JOINT LowerBack
	{
		OFFSET 0 0 0
		CHANNELS 3 Zrotation Yrotation Xrotation
		JOINT Spine
		{
			OFFSET 0.04294 2.14638 -0.31163
			CHANNELS 3 Zrotation Yrotation Xrotation
			JOINT Spine1
			{
				OFFSET -0.00400 2.17216 0.01486
				CHANNELS 3 Zrotation Yrotation Xrotation
				JOINT Neck
				{
					OFFSET 0 0 0
					CHANNELS 3 Zrotation Yrotation Xrotation
					JOINT Neck1
					{
						OFFSET 0.03869 1.76598 0.14916
						CHANNELS 3 Zrotation Yrotation Xrotation
						JOINT Head
						{
							OFFSET -0.00760 1.75513 -0.18948
							CHANNELS 3 Zrotation Yrotation Xrotation
							End Site
							{
								OFFSET -0.00601 1.82444 -0.08310
							}
						}
					}
				}
				JOINT LeftShoulder
				{
					OFFSET 0 0 0
					CHANNELS 3 Zrotation Yrotation Xrotation
					JOINT LeftArm
					{
						OFFSET 3.73696 0.92058 0.01733
						CHANNELS 3 Zrotation Yrotation Xrotation
						JOINT LeftForeArm
						{
							OFFSET 5.22771 -0.00000 0.00000
							CHANNELS 3 Zrotation Yrotation Xrotation
							JOINT LeftHand
							{
								OFFSET 3.45251 -0.00000 0.00000
								CHANNELS 3 Zrotation Yrotation Xrotation
								JOINT LeftFingerBase
								{
									OFFSET 0 0 0
									CHANNELS 3 Zrotation Yrotation Xrotation
									JOINT LeftHandIndex1
									{
										OFFSET 0.55212 -0.00000 0.00000
										CHANNELS 3 Zrotation Yrotation Xrotation
										End Site
										{
											OFFSET 0.44513 -0.00000 0.00000
										}
									}
								}
								JOINT LThumb
								{
									OFFSET 0 0 0
									CHANNELS 3 Zrotation Yrotation Xrotation
									End Site
									{
										OFFSET 0.45193 -0.00000 0.45193
									}
								}
							}
						}
					}
				}
				JOINT RightShoulder
				{
					OFFSET 0 0 0
					CHANNELS 3 Zrotation Yrotation Xrotation
					JOINT RightArm
					{
						OFFSET -3.63819 0.83094 -0.13694
						CHANNELS 3 Zrotation Yrotation Xrotation
						JOINT RightForeArm
						{
							OFFSET -5.23980 -0.00000 -0.00000
							CHANNELS 3 Zrotation Yrotation Xrotation
							JOINT RightHand
							{
								OFFSET -3.48042 -0.00000 -0.00000
								CHANNELS 3 Zrotation Yrotation Xrotation
								JOINT RightFingerBase
								{
									OFFSET 0 0 0
									CHANNELS 3 Zrotation Yrotation Xrotation
									JOINT RightHandIndex1
									{
										OFFSET -0.61871 -0.00000 0.00000
										CHANNELS 3 Zrotation Yrotation Xrotation
										End Site
										{
											OFFSET -0.49882 -0.00000 0.00000
										}
									}
								}
								JOINT RThumb
								{
									OFFSET 0 0 0
									CHANNELS 3 Zrotation Yrotation Xrotation
									End Site
									{
										OFFSET -0.50644 -0.00000 0.50644
									}
								}
							}
						}
					}
				}
			}
		}
	}
}
MOTION
Frames: 8
Frame Time: .0083333
-34.8022 16.6029 -5.5416 0 0 0 0 0 0 -21 0 0 0 0 0 0 0 0 0 0 0 0 0 0 21 0 0 0 0 0 0 0 0 0 0 0 0 0 0 0 0 0 0 0 0 0 0 -16 0 0 21 0 0 11 0 0 0 -8 0 0 0 0 0 0 0 0 0 0 0 0 0 0 0 0 0 0 0 0 8 0 0 0 0 0 0 0 0 0 0 0 0 0 0 0 0 0
-34.8022 16.6029 -5.5416 151.9920 89.7809 155.7430 0.0000 0.0000 0.0000 -23.0537 20.3368 12.1961 0.0000 0.0000 0.0000 0.9582 -4.5273 -17.5368 0.3530 -3.8170 -10.5623 0.0000 0.0000 0.0000 15.5683 21.0329 -40.1056 -2.9010 -10.5330 30.7207 -2.0181 -0.0422 -26.9201 -0.2367 -3.1314 8.6448 -2.3261 -1.5118 2.8942 -1.0838 -1.9536 3.6808 0.2077 -0.9865 2.1996 2.2663 -0.2264 -7.4945 2.3048 -0.3098 -4.1688 0.3240 -0.1165 -0.0531 0.0000 0.0000 0.0000 -87.8075 -8.5425 31.3925 15.3570 -24.6411 -3.3734 -0.0000 0.0000 -12.3578 18.3158 12.6796 4.1558 -7.1250 0.0000 -0.0000 -8.1525 43.1645 0.3719 0.0000 0.0000 0.0000 90.7301 -2.7955 12.0716 -11.2261 18.6340 -1.8475 0.0000 0.0000 10.2404 -18.3901 -4.1968 1.3938 7.1250 -0.0000 -0.0000 6.7965 -34.3403 1.7885
-34.6921 16.5860 -5.5463 152.7630 89.4949 156.5500 0.0000 0.0000 0.0000 -23.0628 20.1989 12.6184 0.0000 0.0000 0.0000 0.9530 -4.4552 -17.4941 0.3744 -3.9302 -10.8804 0.0000 0.0000 0.0000 15.1465 21.3034 -40.0781 -2.7772 -10.3254 30.0371 -1.9748 -0.4729 -26.7721 -0.1459 -2.4616 6.7831 -2.3604 -1.5301 2.7970 -1.0588 -1.9726 3.7495 0.2484 -0.9981 2.3276 2.2634 -0.2812 -7.5017 2.2777 -0.3731 -4.3648 0.3150 -0.1494 -0.1122 -0.0000 0.0000 0.0000 -88.0167 -8.7283 31.4877 15.1459 -24.3489 -3.2858 -0.0000 0.0000 -12.0857 18.2476 12.7395 4.1584 -7.1250 0.0000 -0.0000 -8.2261 43.2191 0.3642 -0.0000 0.0000 0.0000 90.7232 -2.7683 11.3875 -11.0354 18.3426 -1.7871 0.0000 0.0000 10.5917 -18.3094 -3.2741 1.0827 7.1250 -0.0000 -0.0000 6.7688 -33.3728 1.9408
-34.5792 16.5704 -5.5501 154.1720 89.2180 158.0100 0.0000 0.0000 0.0000 -23.0433 20.0694 13.0685 0.0000 -0.0000 -0.0000 0.9541 -4.3763 -17.5117 0.4171 -4.1456 -11.4868 0.0000 0.0000 0.0000 14.8103 21.4593 -40.1499 -2.6973 -10.1880 29.5879 -1.9205 -1.1185 -26.6325 -0.0602 -1.5837 4.3566 -2.3526 -1.5521 2.8330 -1.0506 -2.0059 3.6873 0.2549 -1.0142 2.2440 2.2977 -0.3207 -7.3570 2.2685 -0.4149 -4.5707 0.3062 -0.1738 -0.1985 -0.0000 -0.0000 0.0000 -88.2002 -8.7005 31.4471 14.9049 -24.0135 -3.1872 -0.0000 0.0000 -11.7076 17.9982 12.2934 3.9571 -7.1250 0.0000 -0.0000 -8.3568 42.7319 0.4713 -0.0000 -0.0000 0.0000 90.7610 -3.0297 11.2098 -11.0043 18.2948 -1.7773 0.0000 0.0000 10.6770 -18.3447 -3.8080 1.2615 7.1250 -0.0000 -0.0000 6.7932 -33.9321 1.8553
-34.4590 16.5560 -5.5529 156.2610 88.9222 160.1340 0.0000 0.0000 0.0000 -22.9725 19.9219 13.5707 0.0000 -0.0000 -0.0000 0.9416 -4.3409 -17.3963 0.4593 -4.3472 -12.0555 0.0000 0.0000 0.0000 14.6354 21.3745 -40.0228 -2.6218 -10.0562 29.1588 -1.8481 -1.7483 -26.3749 -0.0228 -0.9740 2.6774 -2.3546 -1.5864 2.7719 -1.0053 -2.0510 3.6885 0.3009 -1.0379 2.2822 2.2473 -0.3690 -7.3138 2.2939 -0.4697 -4.6633 0.3211 -0.2014 -0.2334 -0.0000 0.0000 0.0000 -88.4438 -8.7412 31.3218 14.6018 -23.5885 -3.0648 -0.0000 0.0000 -11.3401 18.1116 12.1477 3.9373 -7.1250 0.0000 -0.0000 -8.2264 42.5930 0.4922 -0.0000 0.0000 0.0000 90.7472 -3.1745 10.9653 -10.9334 18.1861 -1.7551 0.0000 0.0000 10.8215 -18.2894 -4.1377 1.3661 7.1250 -0.0000 -0.0000 6.8726 -34.2746 1.8198
-34.3406 16.5400 -5.5557 157.4260 88.6565 161.3470 0.0000 0.0000 0.0000 -22.9007 19.7932 14.0417 0.0000 -0.0000 -0.0000 0.9313 -4.3001 -17.3017 0.4995 -4.5312 -12.5761 0.0000 0.0000 0.0000 14.4017 21.4216 -39.9826 -2.5657 -9.9564 28.8357 -1.7901 -2.2645 -26.1804 -0.0038 -0.3966 1.0896 -2.3356 -1.6103 2.7338 -0.9716 -2.0836 3.6627 0.3243 -1.0546 2.2782 2.2412 -0.4140 -7.2286 2.2959 -0.5209 -4.7934 0.3220 -0.2287 -0.2865 0.0000 0.0000 0.0000 -88.6604 -8.7439 31.1943 14.3350 -23.2116 -2.9589 -0.0000 0.0000 -10.9776 18.0389 12.0050 3.8752 -7.1250 0.0000 -0.0000 -8.2624 42.4381 0.5262 0.0000 0.0000 0.0000 90.7623 -3.3411 10.6393 -10.8508 18.0592 -1.7294 0.0000 0.0000 11.0164 -18.2503 -4.3129 1.4206 7.1250 -0.0000 -0.0000 6.9233 -34.4559 1.8027
-34.2193 16.5242 -5.5576 158.5800 88.4063 162.5530 0.0000 0.0000 0.0000 -22.8054 19.6731 14.5147 0.0000 0.0000 0.0000 0.9170 -4.2595 -17.1676 0.5453 -4.7309 -13.1428 0.0000 0.0000 0.0000 14.2124 21.4401 -39.9253 -2.5308 -9.8937 28.6330 -1.7312 -2.7489 -25.9725 -0.0001 0.0717 -0.1970 -2.3005 -1.6303 2.6958 -0.9356 -2.1119 3.6203 0.3415 -1.0686 2.2562 2.2404 -0.4598 -7.1340 2.2977 -0.5745 -4.9010 0.3221 -0.2573 -0.3342 -0.0000 0.0000 0.0000 -88.8764 -8.7078 31.0049 14.0637 -22.8257 -2.8528 -0.0000 0.0000 -10.6009 17.9598 11.9299 3.8334 -7.1250 0.0000 -0.0000 -8.3176 42.3525 0.5475 -0.0000 0.0000 0.0000 90.7864 -3.5273 10.3133 -10.7727 17.9390 -1.7052 0.0000 0.0000 11.2193 -18.2193 -4.4944 1.4775 7.1250 -0.0000 -0.0000 6.9684 -34.6440 1.7825
-34.0949 16.5088 -5.5588 159.5810 88.1676 163.6120 0.0000 0.0000 0.0000 -22.6914 19.5602 14.9927 0.0000 0.0000 0.0000 0.8979 -4.2270 -16.9846 0.5927 -4.9288 -13.7057 0.0000 0.0000 0.0000 14.0518 21.4490 -39.8193 -2.5098 -9.8557 28.5109 -1.6702 -3.2054 -25.7425 -0.0038 0.3966 -1.0898 -2.2593 -1.6493 2.6451 -0.8947 -2.1388 3.5740 0.3598 -1.0820 2.2374 2.2360 -0.5053 -7.0610 2.2978 -0.6298 -4.9753 0.3222 -0.2863 -0.3683 0.0000 0.0000 0.0000 -89.0980 -8.6511 30.7443 13.7889 -22.4321 -2.7470 -0.0000 0.0000 -10.2032 17.8794 11.9377 3.8176 -7.1250 0.0000 -0.0000 -8.3905 42.3524 0.5523 0.0000 0.0000 0.0000 90.8123 -3.6962 9.9505 -10.6835 17.8015 -1.6779 0.0000 0.0000 11.4586 -18.2048 -4.5807 1.5045 7.1250 -0.0000 -0.0000 6.9898 -34.7336 1.7728
